<svg width="246" height="358" viewBox="0 0 246 358" fill="none" xmlns="http://www.w3.org/2000/svg">
<rect width="216" height="328" transform="translate(15 13)" fill="#CCF3E7"/>
<g filter="url(#filter0_d_21_421)">
<rect x="15" y="13" width="216" height="328" rx="2" fill="white"/>
<rect x="14.75" y="12.75" width="216.5" height="328.5" rx="2.25" stroke="black" stroke-opacity="0.2" stroke-width="0.5" stroke-linecap="square"/>
</g>
<rect x="15" y="107" width="216" height="32" fill="#DAEBF7"/>
<rect width="216" height="1" transform="translate(15 102)" fill="#E5E5E5"/>
<rect width="216" height="1" transform="translate(15 61)" fill="#E5E5E5"/>
<path d="M56.3438 80C56.2969 79.6042 56.1068 79.2969 55.7734 79.0781C55.4401 78.8594 55.0313 78.75 54.5469 78.75C54.1927 78.75 53.8828 78.8073 53.6172 78.9219C53.3542 79.0365 53.1484 79.194 53 79.3945C52.8542 79.5951 52.7813 79.8229 52.7813 80.0781C52.7813 80.2917 52.832 80.4753 52.9336 80.6289C53.0378 80.7799 53.1706 80.9062 53.332 81.0078C53.4935 81.1068 53.6628 81.1888 53.8398 81.2539C54.0169 81.3164 54.1797 81.3672 54.3281 81.4062L55.1406 81.625C55.349 81.6797 55.5807 81.7552 55.8359 81.8516C56.0938 81.9479 56.3398 82.0794 56.5742 82.2461C56.8112 82.4102 57.0065 82.6211 57.1602 82.8789C57.3138 83.1367 57.3906 83.4531 57.3906 83.8281C57.3906 84.2604 57.2773 84.651 57.0508 85C56.8268 85.349 56.4987 85.6263 56.0664 85.832C55.6367 86.0378 55.1146 86.1406 54.5 86.1406C53.9271 86.1406 53.431 86.0482 53.0117 85.8633C52.5951 85.6784 52.2669 85.4206 52.0273 85.0898C51.7904 84.7591 51.6563 84.375 51.625 83.9375H52.625C52.651 84.2396 52.7526 84.4896 52.9297 84.6875C53.1094 84.8828 53.3359 85.0286 53.6094 85.125C53.8854 85.2187 54.1823 85.2656 54.5 85.2656C54.8698 85.2656 55.2018 85.2057 55.4961 85.0859C55.7904 84.9635 56.0234 84.7943 56.1953 84.5781C56.3672 84.3594 56.4531 84.1042 56.4531 83.8125C56.4531 83.5469 56.3789 83.3307 56.2305 83.1641C56.082 82.9974 55.8867 82.862 55.6445 82.7578C55.4023 82.6536 55.1406 82.5625 54.8594 82.4844L53.875 82.2031C53.25 82.0234 52.7552 81.7669 52.3906 81.4336C52.026 81.1003 51.8438 80.6641 51.8438 80.125C51.8438 79.6771 51.9648 79.2865 52.207 78.9531C52.4518 78.6172 52.7799 78.3568 53.1914 78.1719C53.6055 77.9844 54.0677 77.8906 54.5781 77.8906C55.0938 77.8906 55.5521 77.9831 55.9531 78.168C56.3542 78.3503 56.6719 78.6003 56.9062 78.918C57.1432 79.2357 57.2682 79.5964 57.2813 80H56.3438ZM61.429 86.125C60.8509 86.125 60.3522 85.9974 59.9329 85.7422C59.5163 85.4844 59.1946 85.125 58.9681 84.6641C58.7441 84.2005 58.6321 83.6615 58.6321 83.0469C58.6321 82.4323 58.7441 81.8906 58.9681 81.4219C59.1946 80.9505 59.5098 80.5833 59.9134 80.3203C60.3196 80.0547 60.7936 79.9219 61.3353 79.9219C61.6478 79.9219 61.9564 79.974 62.2611 80.0781C62.5657 80.1823 62.8431 80.3516 63.0931 80.5859C63.3431 80.8177 63.5423 81.125 63.6907 81.5078C63.8392 81.8906 63.9134 82.362 63.9134 82.9219V83.3125H59.2884V82.5156H62.9759C62.9759 82.1771 62.9082 81.875 62.7728 81.6094C62.64 81.3437 62.4499 81.1341 62.2025 80.9805C61.9577 80.8268 61.6686 80.75 61.3353 80.75C60.9681 80.75 60.6504 80.8411 60.3821 81.0234C60.1165 81.2031 59.9121 81.4375 59.7689 81.7266C59.6256 82.0156 59.554 82.3255 59.554 82.6562V83.1875C59.554 83.6406 59.6321 84.0247 59.7884 84.3398C59.9473 84.6523 60.1673 84.8906 60.4486 85.0547C60.7298 85.2161 61.0566 85.2969 61.429 85.2969C61.6712 85.2969 61.89 85.263 62.0853 85.1953C62.2832 85.125 62.4538 85.0208 62.597 84.8828C62.7402 84.7422 62.8509 84.5677 62.929 84.3594L63.8196 84.6094C63.7259 84.9115 63.5683 85.1771 63.347 85.4062C63.1256 85.6328 62.8522 85.8099 62.5267 85.9375C62.2012 86.0625 61.8353 86.125 61.429 86.125ZM67.1364 86.1406C66.7562 86.1406 66.4111 86.069 66.1012 85.9258C65.7913 85.7799 65.5452 85.5703 65.3629 85.2969C65.1806 85.0208 65.0895 84.6875 65.0895 84.2969C65.0895 83.9531 65.1572 83.6745 65.2926 83.4609C65.428 83.2448 65.609 83.0755 65.8356 82.9531C66.0621 82.8307 66.3121 82.7396 66.5856 82.6797C66.8616 82.6172 67.139 82.5677 67.4176 82.5313C67.7822 82.4844 68.0778 82.4492 68.3043 82.4258C68.5335 82.3997 68.7002 82.3568 68.8043 82.2969C68.9111 82.237 68.9645 82.1328 68.9645 81.9844V81.9531C68.9645 81.5677 68.859 81.2682 68.6481 81.0547C68.4398 80.8411 68.1233 80.7344 67.6989 80.7344C67.2588 80.7344 66.9137 80.8307 66.6637 81.0234C66.4137 81.2161 66.2379 81.4219 66.1364 81.6406L65.2614 81.3281C65.4176 80.9635 65.626 80.6797 65.8864 80.4766C66.1494 80.2708 66.4358 80.1276 66.7457 80.0469C67.0582 79.9635 67.3655 79.9219 67.6676 79.9219C67.8603 79.9219 68.0817 79.9453 68.3317 79.9922C68.5843 80.0365 68.8278 80.1289 69.0621 80.2695C69.2991 80.4102 69.4957 80.6224 69.652 80.9062C69.8082 81.1901 69.8864 81.5703 69.8864 82.0469V86H68.9645V85.1875H68.9176C68.8551 85.3177 68.751 85.457 68.6051 85.6055C68.4593 85.7539 68.2653 85.8802 68.0231 85.9844C67.7809 86.0885 67.4853 86.1406 67.1364 86.1406ZM67.277 85.3125C67.6416 85.3125 67.9489 85.2409 68.1989 85.0977C68.4515 84.9544 68.6416 84.7695 68.7692 84.543C68.8994 84.3164 68.9645 84.0781 68.9645 83.8281V82.9844C68.9254 83.0312 68.8395 83.0742 68.7067 83.1133C68.5765 83.1497 68.4254 83.1823 68.2536 83.2109C68.0843 83.237 67.9189 83.2604 67.7575 83.2812C67.5986 83.2995 67.4697 83.3151 67.3707 83.3281C67.1312 83.3594 66.9072 83.4102 66.6989 83.4805C66.4931 83.5482 66.3265 83.651 66.1989 83.7891C66.0739 83.9245 66.0114 84.1094 66.0114 84.3437C66.0114 84.6641 66.1299 84.9062 66.3668 85.0703C66.6064 85.2318 66.9098 85.3125 67.277 85.3125ZM71.624 86V80H72.5146V80.9062H72.5771C72.6865 80.6094 72.8844 80.3685 73.1709 80.1836C73.4573 79.9987 73.7802 79.9062 74.1396 79.9062C74.2073 79.9062 74.292 79.9076 74.3935 79.9102C74.4951 79.9128 74.5719 79.9167 74.624 79.9219V80.8594C74.5927 80.8516 74.5211 80.8398 74.4091 80.8242C74.2998 80.806 74.1839 80.7969 74.0615 80.7969C73.7698 80.7969 73.5094 80.8581 73.2802 80.9805C73.0537 81.1003 72.874 81.2669 72.7412 81.4805C72.611 81.6914 72.5459 81.9323 72.5459 82.2031V86H71.624ZM78.0266 86.125C77.4641 86.125 76.9798 85.9922 76.5735 85.7266C76.1673 85.4609 75.8548 85.0951 75.636 84.6289C75.4173 84.1628 75.3079 83.6302 75.3079 83.0312C75.3079 82.4219 75.4199 81.8841 75.6438 81.418C75.8704 80.9492 76.1855 80.5833 76.5891 80.3203C76.9954 80.0547 77.4693 79.9219 78.011 79.9219C78.4329 79.9219 78.8131 80 79.1516 80.1562C79.4902 80.3125 79.7675 80.5312 79.9837 80.8125C80.1998 81.0937 80.3339 81.4219 80.386 81.7969H79.4641C79.3938 81.5234 79.2376 81.2812 78.9954 81.0703C78.7558 80.8568 78.4329 80.75 78.0266 80.75C77.6673 80.75 77.3522 80.8437 77.0813 81.0312C76.8131 81.2161 76.6035 81.4779 76.4524 81.8164C76.304 82.1523 76.2298 82.5469 76.2298 83C76.2298 83.4635 76.3027 83.8672 76.4485 84.2109C76.597 84.5547 76.8053 84.8216 77.0735 85.0117C77.3443 85.2018 77.6621 85.2969 78.0266 85.2969C78.2662 85.2969 78.4837 85.2552 78.679 85.1719C78.8743 85.0885 79.0397 84.9688 79.1751 84.8125C79.3105 84.6562 79.4068 84.4687 79.4641 84.25H80.386C80.3339 84.6042 80.205 84.9232 79.9993 85.207C79.7962 85.4883 79.5266 85.7122 79.1907 85.8789C78.8574 86.043 78.4693 86.125 78.0266 86.125ZM82.7105 82.3906V86H81.7887V78H82.7105V80.9375H82.7887C82.9293 80.6276 83.1402 80.3815 83.4215 80.1992C83.7053 80.0143 84.0829 79.9219 84.5543 79.9219C84.9632 79.9219 85.3212 80.0039 85.6285 80.168C85.9358 80.3294 86.1741 80.5781 86.3434 80.9141C86.5152 81.2474 86.6012 81.6719 86.6012 82.1875V86H85.6793V82.25C85.6793 81.7734 85.5556 81.4049 85.3082 81.1445C85.0634 80.8815 84.7236 80.75 84.2887 80.75C83.9866 80.75 83.7158 80.8138 83.4762 80.9414C83.2392 81.069 83.0517 81.2552 82.9137 81.5C82.7783 81.7448 82.7105 82.0417 82.7105 82.3906Z" fill="black" fill-opacity="0.3"/>
<path fill-rule="evenodd" clip-rule="evenodd" d="M39.1034 81.0517C39.1034 83.0133 37.5133 84.6034 35.5517 84.6034C33.5902 84.6034 32 83.0133 32 81.0517C32 79.0902 33.5902 77.5 35.5517 77.5C37.5133 77.5 39.1034 79.0902 39.1034 81.0517ZM38.3972 84.6046C37.6179 85.2296 36.6285 85.6034 35.5517 85.6034C33.0379 85.6034 31 83.5656 31 81.0517C31 78.5379 33.0379 76.5 35.5517 76.5C38.0656 76.5 40.1034 78.5379 40.1034 81.0517C40.1034 82.1286 39.7295 83.1181 39.1044 83.8975L42.3535 87.1467L41.6464 87.8538L38.3972 84.6046Z" fill="black" fill-opacity="0.8"/>
<g clip-path="url(#clip0_21_421)">
<path d="M55.9688 127V119H58.6719C59.2995 119 59.8125 119.113 60.2109 119.34C60.612 119.564 60.9089 119.867 61.1016 120.25C61.2943 120.633 61.3906 121.06 61.3906 121.531C61.3906 122.003 61.2943 122.431 61.1016 122.816C60.9115 123.202 60.6172 123.509 60.2188 123.738C59.8203 123.965 59.3099 124.078 58.6875 124.078H56.75V123.219H58.6563C59.0859 123.219 59.431 123.145 59.6914 122.996C59.9518 122.848 60.1406 122.647 60.2578 122.395C60.3776 122.139 60.4375 121.852 60.4375 121.531C60.4375 121.211 60.3776 120.924 60.2578 120.672C60.1406 120.419 59.9505 120.221 59.6875 120.078C59.4245 119.932 59.0755 119.859 58.6406 119.859H56.9375V127H55.9688ZM62.8812 127V121H63.7718V121.906H63.8343C63.9437 121.609 64.1416 121.368 64.428 121.184C64.7145 120.999 65.0374 120.906 65.3968 120.906C65.4645 120.906 65.5491 120.908 65.6507 120.91C65.7523 120.913 65.8291 120.917 65.8812 120.922V121.859C65.8499 121.852 65.7783 121.84 65.6663 121.824C65.557 121.806 65.4411 121.797 65.3187 121.797C65.027 121.797 64.7666 121.858 64.5374 121.98C64.3109 122.1 64.1312 122.267 63.9984 122.48C63.8682 122.691 63.803 122.932 63.803 123.203V127H62.8812ZM67.0289 127V121H67.9508V127H67.0289ZM67.4977 120C67.318 120 67.1631 119.939 67.0329 119.816C66.9052 119.694 66.8414 119.547 66.8414 119.375C66.8414 119.203 66.9052 119.056 67.0329 118.934C67.1631 118.811 67.318 118.75 67.4977 118.75C67.6774 118.75 67.831 118.811 67.9586 118.934C68.0888 119.056 68.1539 119.203 68.1539 119.375C68.1539 119.547 68.0888 119.694 67.9586 119.816C67.831 119.939 67.6774 120 67.4977 120ZM69.6943 127V121H70.5849V121.937H70.663C70.788 121.617 70.9899 121.368 71.2685 121.191C71.5472 121.012 71.8818 120.922 72.2724 120.922C72.6683 120.922 72.9977 121.012 73.2607 121.191C73.5263 121.368 73.7334 121.617 73.8818 121.937H73.9443C74.0979 121.628 74.3284 121.382 74.6357 121.199C74.943 121.014 75.3115 120.922 75.7412 120.922C76.2776 120.922 76.7164 121.09 77.0576 121.426C77.3987 121.759 77.5693 122.279 77.5693 122.984V127H76.6474V122.984C76.6474 122.542 76.5263 122.225 76.2841 122.035C76.042 121.845 75.7568 121.75 75.4287 121.75C75.0068 121.75 74.68 121.878 74.4482 122.133C74.2164 122.385 74.1005 122.706 74.1005 123.094V127H73.163V122.891C73.163 122.549 73.0524 122.275 72.831 122.066C72.6097 121.855 72.3245 121.75 71.9755 121.75C71.736 121.75 71.512 121.814 71.3037 121.941C71.0979 122.069 70.9313 122.246 70.8037 122.473C70.6787 122.697 70.6162 122.956 70.6162 123.25V127H69.6943ZM81.0755 127.141C80.6953 127.141 80.3502 127.069 80.0403 126.926C79.7304 126.78 79.4843 126.57 79.302 126.297C79.1197 126.021 79.0286 125.687 79.0286 125.297C79.0286 124.953 79.0963 124.674 79.2317 124.461C79.3671 124.245 79.5481 124.076 79.7747 123.953C80.0012 123.831 80.2512 123.74 80.5247 123.68C80.8007 123.617 81.0781 123.568 81.3567 123.531C81.7213 123.484 82.0169 123.449 82.2434 123.426C82.4726 123.4 82.6393 123.357 82.7434 123.297C82.8502 123.237 82.9036 123.133 82.9036 122.984V122.953C82.9036 122.568 82.7981 122.268 82.5872 122.055C82.3789 121.841 82.0624 121.734 81.638 121.734C81.1979 121.734 80.8528 121.831 80.6028 122.023C80.3528 122.216 80.177 122.422 80.0755 122.641L79.2005 122.328C79.3567 121.964 79.5651 121.68 79.8255 121.477C80.0885 121.271 80.3749 121.128 80.6848 121.047C80.9973 120.964 81.3046 120.922 81.6067 120.922C81.7994 120.922 82.0208 120.945 82.2708 120.992C82.5234 121.036 82.7669 121.129 83.0012 121.27C83.2382 121.41 83.4348 121.622 83.5911 121.906C83.7473 122.19 83.8255 122.57 83.8255 123.047V127H82.9036V126.187H82.8567C82.7942 126.318 82.6901 126.457 82.5442 126.605C82.3984 126.754 82.2044 126.88 81.9622 126.984C81.72 127.089 81.4244 127.141 81.0755 127.141ZM81.2161 126.312C81.5807 126.312 81.888 126.241 82.138 126.098C82.3906 125.954 82.5807 125.77 82.7083 125.543C82.8385 125.316 82.9036 125.078 82.9036 124.828V123.984C82.8645 124.031 82.7786 124.074 82.6458 124.113C82.5156 124.15 82.3645 124.182 82.1927 124.211C82.0234 124.237 81.858 124.26 81.6966 124.281C81.5377 124.299 81.4088 124.315 81.3098 124.328C81.0703 124.359 80.8463 124.41 80.638 124.48C80.4322 124.548 80.2656 124.651 80.138 124.789C80.013 124.924 79.9505 125.109 79.9505 125.344C79.9505 125.664 80.069 125.906 80.3059 126.07C80.5455 126.232 80.8489 126.312 81.2161 126.312ZM85.5631 127V121H86.4537V121.906H86.5162C86.6256 121.609 86.8235 121.368 87.11 121.184C87.3964 120.999 87.7193 120.906 88.0787 120.906C88.1464 120.906 88.2311 120.908 88.3326 120.91C88.4342 120.913 88.511 120.917 88.5631 120.922V121.859C88.5318 121.852 88.4602 121.84 88.3482 121.824C88.2389 121.806 88.123 121.797 88.0006 121.797C87.7089 121.797 87.4485 121.858 87.2193 121.98C86.9928 122.1 86.8131 122.267 86.6803 122.48C86.5501 122.691 86.485 122.932 86.485 123.203V127H85.5631ZM90.4872 129.25C90.331 129.25 90.1917 129.237 90.0693 129.211C89.9469 129.188 89.8622 129.164 89.8154 129.141L90.0497 128.328C90.2737 128.385 90.4716 128.406 90.6435 128.391C90.8154 128.375 90.9677 128.298 91.1005 128.16C91.2359 128.025 91.3596 127.805 91.4716 127.5L91.6435 127.031L89.4247 121H90.4247L92.081 125.781H92.1435L93.7997 121H94.7997L92.2529 127.875C92.1383 128.185 91.9963 128.441 91.8271 128.645C91.6578 128.85 91.4612 129.003 91.2372 129.102C91.0159 129.201 90.7659 129.25 90.4872 129.25Z" fill="black" fill-opacity="0.8"/>
<circle cx="39" cy="123" r="9.5" fill="#02303A" stroke="white"/>
<rect width="200" height="32" transform="translate(23 139)" fill="white"/>
<path d="M60.3438 153C60.2969 152.604 60.1068 152.297 59.7734 152.078C59.4401 151.859 59.0313 151.75 58.5469 151.75C58.1927 151.75 57.8828 151.807 57.6172 151.922C57.3542 152.036 57.1484 152.194 57 152.395C56.8542 152.595 56.7813 152.823 56.7813 153.078C56.7813 153.292 56.832 153.475 56.9336 153.629C57.0378 153.78 57.1706 153.906 57.332 154.008C57.4935 154.107 57.6628 154.189 57.8398 154.254C58.0169 154.316 58.1797 154.367 58.3281 154.406L59.1406 154.625C59.349 154.68 59.5807 154.755 59.8359 154.852C60.0938 154.948 60.3398 155.079 60.5742 155.246C60.8112 155.41 61.0065 155.621 61.1602 155.879C61.3138 156.137 61.3906 156.453 61.3906 156.828C61.3906 157.26 61.2773 157.651 61.0508 158C60.8268 158.349 60.4987 158.626 60.0664 158.832C59.6367 159.038 59.1146 159.141 58.5 159.141C57.9271 159.141 57.431 159.048 57.0117 158.863C56.5951 158.678 56.2669 158.421 56.0273 158.09C55.7904 157.759 55.6563 157.375 55.625 156.938H56.625C56.651 157.24 56.7526 157.49 56.9297 157.687C57.1094 157.883 57.3359 158.029 57.6094 158.125C57.8854 158.219 58.1823 158.266 58.5 158.266C58.8698 158.266 59.2018 158.206 59.4961 158.086C59.7904 157.964 60.0234 157.794 60.1953 157.578C60.3672 157.359 60.4531 157.104 60.4531 156.812C60.4531 156.547 60.3789 156.331 60.2305 156.164C60.082 155.997 59.8867 155.862 59.6445 155.758C59.4023 155.654 59.1406 155.562 58.8594 155.484L57.875 155.203C57.25 155.023 56.7552 154.767 56.3906 154.434C56.026 154.1 55.8438 153.664 55.8438 153.125C55.8438 152.677 55.9648 152.286 56.207 151.953C56.4518 151.617 56.7799 151.357 57.1914 151.172C57.6055 150.984 58.0677 150.891 58.5781 150.891C59.0938 150.891 59.5521 150.983 59.9531 151.168C60.3542 151.35 60.6719 151.6 60.9062 151.918C61.1432 152.236 61.2682 152.596 61.2813 153H60.3438ZM65.429 159.125C64.8509 159.125 64.3522 158.997 63.9329 158.742C63.5163 158.484 63.1946 158.125 62.9681 157.664C62.7441 157.201 62.6321 156.661 62.6321 156.047C62.6321 155.432 62.7441 154.891 62.9681 154.422C63.1946 153.951 63.5098 153.583 63.9134 153.32C64.3196 153.055 64.7936 152.922 65.3353 152.922C65.6478 152.922 65.9564 152.974 66.2611 153.078C66.5657 153.182 66.8431 153.352 67.0931 153.586C67.3431 153.818 67.5423 154.125 67.6907 154.508C67.8392 154.891 67.9134 155.362 67.9134 155.922V156.312H63.2884V155.516H66.9759C66.9759 155.177 66.9082 154.875 66.7728 154.609C66.64 154.344 66.4499 154.134 66.2025 153.98C65.9577 153.827 65.6686 153.75 65.3353 153.75C64.9681 153.75 64.6504 153.841 64.3821 154.023C64.1165 154.203 63.9121 154.437 63.7689 154.727C63.6256 155.016 63.554 155.326 63.554 155.656V156.188C63.554 156.641 63.6321 157.025 63.7884 157.34C63.9473 157.652 64.1673 157.891 64.4486 158.055C64.7298 158.216 65.0566 158.297 65.429 158.297C65.6712 158.297 65.89 158.263 66.0853 158.195C66.2832 158.125 66.4538 158.021 66.597 157.883C66.7402 157.742 66.8509 157.568 66.929 157.359L67.8196 157.609C67.7259 157.911 67.5683 158.177 67.347 158.406C67.1256 158.633 66.8522 158.81 66.5267 158.937C66.2012 159.063 65.8353 159.125 65.429 159.125ZM71.8082 159.125C71.2457 159.125 70.7614 158.992 70.3551 158.727C69.9489 158.461 69.6364 158.095 69.4176 157.629C69.1989 157.163 69.0895 156.63 69.0895 156.031C69.0895 155.422 69.2015 154.884 69.4254 154.418C69.652 153.949 69.9671 153.583 70.3707 153.32C70.777 153.055 71.251 152.922 71.7926 152.922C72.2145 152.922 72.5947 153 72.9332 153.156C73.2718 153.312 73.5491 153.531 73.7653 153.812C73.9814 154.094 74.1155 154.422 74.1676 154.797H73.2457C73.1754 154.523 73.0192 154.281 72.777 154.07C72.5374 153.857 72.2145 153.75 71.8082 153.75C71.4489 153.75 71.1338 153.844 70.8629 154.031C70.5947 154.216 70.3851 154.478 70.234 154.816C70.0856 155.152 70.0114 155.547 70.0114 156C70.0114 156.464 70.0843 156.867 70.2301 157.211C70.3786 157.555 70.5869 157.822 70.8551 158.012C71.126 158.202 71.4437 158.297 71.8082 158.297C72.0478 158.297 72.2653 158.255 72.4606 158.172C72.6559 158.089 72.8213 157.969 72.9567 157.812C73.0921 157.656 73.1885 157.469 73.2457 157.25H74.1676C74.1155 157.604 73.9866 157.923 73.7809 158.207C73.5778 158.488 73.3082 158.712 72.9723 158.879C72.639 159.043 72.251 159.125 71.8082 159.125ZM78.0078 159.125C77.4661 159.125 76.9908 158.996 76.582 158.738C76.1757 158.48 75.858 158.12 75.6289 157.656C75.4023 157.193 75.289 156.651 75.289 156.031C75.289 155.406 75.4023 154.861 75.6289 154.395C75.858 153.928 76.1757 153.566 76.582 153.309C76.9908 153.051 77.4661 152.922 78.0078 152.922C78.5494 152.922 79.0234 153.051 79.4296 153.309C79.8385 153.566 80.1562 153.928 80.3828 154.395C80.6119 154.861 80.7265 155.406 80.7265 156.031C80.7265 156.651 80.6119 157.193 80.3828 157.656C80.1562 158.12 79.8385 158.48 79.4296 158.738C79.0234 158.996 78.5494 159.125 78.0078 159.125ZM78.0078 158.297C78.4192 158.297 78.7578 158.191 79.0234 157.98C79.289 157.77 79.4856 157.492 79.6132 157.148C79.7408 156.805 79.8046 156.432 79.8046 156.031C79.8046 155.63 79.7408 155.257 79.6132 154.91C79.4856 154.564 79.289 154.284 79.0234 154.07C78.7578 153.857 78.4192 153.75 78.0078 153.75C77.5963 153.75 77.2578 153.857 76.9921 154.07C76.7265 154.284 76.5299 154.564 76.4023 154.91C76.2747 155.257 76.2109 155.63 76.2109 156.031C76.2109 156.432 76.2747 156.805 76.4023 157.148C76.5299 157.492 76.7265 157.77 76.9921 157.98C77.2578 158.191 77.5963 158.297 78.0078 158.297ZM83.1106 155.391V159H82.1887V153H83.0794V153.937H83.1575C83.2981 153.633 83.5117 153.388 83.7981 153.203C84.0846 153.016 84.4544 152.922 84.9075 152.922C85.3137 152.922 85.6692 153.005 85.9739 153.172C86.2786 153.336 86.5156 153.586 86.6848 153.922C86.8541 154.255 86.9387 154.677 86.9387 155.188V159H86.0169V155.25C86.0169 154.779 85.8945 154.411 85.6497 154.148C85.4049 153.883 85.069 153.75 84.6419 153.75C84.3476 153.75 84.0846 153.814 83.8528 153.941C83.6236 154.069 83.4427 154.255 83.3098 154.5C83.177 154.745 83.1106 155.042 83.1106 155.391ZM90.9439 159.125C90.4439 159.125 90.0025 158.999 89.6197 158.746C89.2369 158.491 88.9374 158.132 88.7213 157.668C88.5051 157.202 88.3971 156.651 88.3971 156.016C88.3971 155.385 88.5051 154.839 88.7213 154.375C88.9374 153.911 89.2382 153.553 89.6236 153.301C90.0091 153.048 90.4544 152.922 90.9596 152.922C91.3502 152.922 91.6588 152.987 91.8854 153.117C92.1145 153.245 92.289 153.391 92.4088 153.555C92.5312 153.716 92.6262 153.849 92.6939 153.953H92.7721V151H93.6939V159H92.8033V158.078H92.6939C92.6262 158.187 92.5299 158.326 92.4049 158.492C92.2799 158.656 92.1015 158.803 91.8697 158.934C91.638 159.061 91.3294 159.125 90.9439 159.125ZM91.0689 158.297C91.4387 158.297 91.7512 158.201 92.0064 158.008C92.2617 157.812 92.4557 157.543 92.5885 157.199C92.7213 156.853 92.7877 156.453 92.7877 156C92.7877 155.552 92.7226 155.16 92.5924 154.824C92.4622 154.486 92.2695 154.223 92.0143 154.035C91.7591 153.845 91.4439 153.75 91.0689 153.75C90.6783 153.75 90.3528 153.85 90.0924 154.051C89.8346 154.249 89.6406 154.518 89.5104 154.859C89.3827 155.198 89.3189 155.578 89.3189 156C89.3189 156.427 89.3841 156.815 89.5143 157.164C89.6471 157.51 89.8424 157.786 90.1002 157.992C90.3606 158.195 90.6835 158.297 91.0689 158.297ZM97.331 159.141C96.9508 159.141 96.6057 159.069 96.2958 158.926C95.9859 158.78 95.7398 158.57 95.5575 158.297C95.3752 158.021 95.2841 157.687 95.2841 157.297C95.2841 156.953 95.3518 156.674 95.4872 156.461C95.6226 156.245 95.8036 156.076 96.0302 155.953C96.2568 155.831 96.5068 155.74 96.7802 155.68C97.0562 155.617 97.3336 155.568 97.6122 155.531C97.9768 155.484 98.2724 155.449 98.4989 155.426C98.7281 155.4 98.8948 155.357 98.9989 155.297C99.1057 155.237 99.1591 155.133 99.1591 154.984V154.953C99.1591 154.568 99.0536 154.268 98.8427 154.055C98.6344 153.841 98.318 153.734 97.8935 153.734C97.4534 153.734 97.1083 153.831 96.8583 154.023C96.6083 154.216 96.4325 154.422 96.331 154.641L95.456 154.328C95.6122 153.964 95.8206 153.68 96.081 153.477C96.344 153.271 96.6305 153.128 96.9404 153.047C97.2529 152.964 97.5601 152.922 97.8622 152.922C98.0549 152.922 98.2763 152.945 98.5263 152.992C98.7789 153.036 99.0224 153.129 99.2568 153.27C99.4937 153.41 99.6904 153.622 99.8466 153.906C100.003 154.19 100.081 154.57 100.081 155.047V159H99.1591V158.187H99.1122C99.0497 158.318 98.9456 158.457 98.7997 158.605C98.6539 158.754 98.4599 158.88 98.2177 158.984C97.9755 159.089 97.6799 159.141 97.331 159.141ZM97.4716 158.312C97.8362 158.312 98.1435 158.241 98.3935 158.098C98.6461 157.954 98.8362 157.77 98.9638 157.543C99.094 157.316 99.1591 157.078 99.1591 156.828V155.984C99.12 156.031 99.0341 156.074 98.9013 156.113C98.7711 156.15 98.62 156.182 98.4482 156.211C98.2789 156.237 98.1135 156.26 97.9521 156.281C97.7932 156.299 97.6643 156.315 97.5654 156.328C97.3258 156.359 97.1018 156.41 96.8935 156.48C96.6877 156.548 96.5211 156.651 96.3935 156.789C96.2685 156.924 96.206 157.109 96.206 157.344C96.206 157.664 96.3245 157.906 96.5614 158.07C96.801 158.232 97.1044 158.312 97.4716 158.312ZM101.819 159V153H102.709V153.906H102.772C102.881 153.609 103.079 153.368 103.365 153.184C103.652 152.999 103.975 152.906 104.334 152.906C104.402 152.906 104.487 152.908 104.588 152.91C104.69 152.913 104.767 152.917 104.819 152.922V153.859C104.787 153.852 104.716 153.84 104.604 153.824C104.494 153.806 104.378 153.797 104.256 153.797C103.964 153.797 103.704 153.858 103.475 153.98C103.248 154.1 103.069 154.267 102.936 154.48C102.806 154.691 102.74 154.932 102.74 155.203V159H101.819ZM106.743 161.25C106.586 161.25 106.447 161.237 106.325 161.211C106.202 161.188 106.118 161.164 106.071 161.141L106.305 160.328C106.529 160.385 106.727 160.406 106.899 160.391C107.071 160.375 107.223 160.298 107.356 160.16C107.491 160.025 107.615 159.805 107.727 159.5L107.899 159.031L105.68 153H106.68L108.336 157.781H108.399L110.055 153H111.055L108.508 159.875C108.394 160.185 108.252 160.441 108.083 160.645C107.913 160.85 107.717 161.003 107.493 161.102C107.271 161.201 107.021 161.25 106.743 161.25Z" fill="black" fill-opacity="0.8"/>
<circle cx="39" cy="155" r="9.5" fill="#3CAFC6" stroke="white"/>
<path d="M55.9688 191V183H60.7656V183.859H56.9375V186.562H60.4063V187.422H56.9375V191H55.9688ZM64.3519 191.125C63.8102 191.125 63.3349 190.996 62.9261 190.738C62.5198 190.48 62.2021 190.12 61.973 189.656C61.7464 189.193 61.6331 188.651 61.6331 188.031C61.6331 187.406 61.7464 186.861 61.973 186.395C62.2021 185.928 62.5198 185.566 62.9261 185.309C63.3349 185.051 63.8102 184.922 64.3519 184.922C64.8935 184.922 65.3675 185.051 65.7738 185.309C66.1826 185.566 66.5003 185.928 66.7269 186.395C66.956 186.861 67.0706 187.406 67.0706 188.031C67.0706 188.651 66.956 189.193 66.7269 189.656C66.5003 190.12 66.1826 190.48 65.7738 190.738C65.3675 190.996 64.8935 191.125 64.3519 191.125ZM64.3519 190.297C64.7633 190.297 65.1019 190.191 65.3675 189.98C65.6331 189.77 65.8297 189.492 65.9573 189.148C66.0849 188.805 66.1488 188.432 66.1488 188.031C66.1488 187.63 66.0849 187.257 65.9573 186.91C65.8297 186.564 65.6331 186.284 65.3675 186.07C65.1019 185.857 64.7633 185.75 64.3519 185.75C63.9404 185.75 63.6019 185.857 63.3362 186.07C63.0706 186.284 62.874 186.564 62.7464 186.91C62.6188 187.257 62.555 187.63 62.555 188.031C62.555 188.432 62.6188 188.805 62.7464 189.148C62.874 189.492 63.0706 189.77 63.3362 189.98C63.6019 190.191 63.9404 190.297 64.3519 190.297ZM70.9704 191.125C70.4079 191.125 69.9235 190.992 69.5172 190.727C69.111 190.461 68.7985 190.095 68.5797 189.629C68.361 189.163 68.2516 188.63 68.2516 188.031C68.2516 187.422 68.3636 186.884 68.5875 186.418C68.8141 185.949 69.1292 185.583 69.5329 185.32C69.9391 185.055 70.4131 184.922 70.9547 184.922C71.3766 184.922 71.7568 185 72.0954 185.156C72.4339 185.312 72.7112 185.531 72.9274 185.812C73.1435 186.094 73.2776 186.422 73.3297 186.797H72.4079C72.3375 186.523 72.1813 186.281 71.9391 186.07C71.6995 185.857 71.3766 185.75 70.9704 185.75C70.611 185.75 70.2959 185.844 70.025 186.031C69.7568 186.216 69.5472 186.478 69.3961 186.816C69.2477 187.152 69.1735 187.547 69.1735 188C69.1735 188.464 69.2464 188.867 69.3922 189.211C69.5407 189.555 69.749 189.822 70.0172 190.012C70.2881 190.202 70.6058 190.297 70.9704 190.297C71.2099 190.297 71.4274 190.255 71.6227 190.172C71.818 190.089 71.9834 189.969 72.1188 189.812C72.2542 189.656 72.3506 189.469 72.4079 189.25H73.3297C73.2776 189.604 73.1487 189.923 72.943 190.207C72.7399 190.488 72.4704 190.712 72.1344 190.879C71.8011 191.043 71.4131 191.125 70.9704 191.125ZM78.5136 188.547V185H79.4355V191H78.5136V189.984H78.4511C78.3105 190.289 78.0918 190.548 77.7949 190.762C77.498 190.973 77.123 191.078 76.6699 191.078C76.2949 191.078 75.9616 190.996 75.6699 190.832C75.3782 190.665 75.1491 190.415 74.9824 190.082C74.8157 189.746 74.7324 189.323 74.7324 188.812V185H75.6543V188.75C75.6543 189.187 75.7767 189.536 76.0214 189.797C76.2688 190.057 76.5839 190.187 76.9668 190.187C77.1959 190.187 77.429 190.129 77.666 190.012C77.9056 189.895 78.1061 189.715 78.2675 189.473C78.4316 189.23 78.5136 188.922 78.5136 188.547ZM85.429 186.344L84.6009 186.578C84.5488 186.44 84.472 186.306 84.3704 186.176C84.2714 186.043 84.136 185.934 83.9641 185.848C83.7923 185.762 83.5722 185.719 83.304 185.719C82.9368 185.719 82.6308 185.803 82.386 185.973C82.1438 186.139 82.0227 186.352 82.0227 186.609C82.0227 186.839 82.1061 187.02 82.2727 187.152C82.4394 187.285 82.6998 187.396 83.054 187.484L83.9446 187.703C84.4811 187.833 84.8808 188.033 85.1438 188.301C85.4068 188.566 85.5384 188.909 85.5384 189.328C85.5384 189.672 85.4394 189.979 85.2415 190.25C85.0462 190.521 84.7727 190.734 84.4212 190.891C84.0696 191.047 83.6608 191.125 83.1946 191.125C82.5826 191.125 82.0761 190.992 81.6751 190.727C81.274 190.461 81.0201 190.073 80.9134 189.562L81.7884 189.344C81.8717 189.667 82.0292 189.909 82.261 190.07C82.4954 190.232 82.8014 190.312 83.179 190.312C83.6087 190.312 83.9498 190.221 84.2024 190.039C84.4576 189.854 84.5852 189.633 84.5852 189.375C84.5852 189.167 84.5123 188.992 84.3665 188.852C84.2207 188.708 83.9967 188.602 83.6946 188.531L82.6946 188.297C82.1451 188.167 81.7415 187.965 81.4837 187.691C81.2285 187.415 81.1009 187.07 81.1009 186.656C81.1009 186.318 81.1959 186.018 81.386 185.758C81.5787 185.497 81.8404 185.293 82.1712 185.145C82.5045 184.996 82.8821 184.922 83.304 184.922C83.8977 184.922 84.3639 185.052 84.7024 185.312C85.0436 185.573 85.2858 185.917 85.429 186.344Z" fill="black" fill-opacity="0.8"/>
<circle cx="39" cy="187" r="9.5" fill="#35C1E4" stroke="white"/>
<rect width="200" height="32" transform="translate(23 203)" fill="white"/>
<path d="M55.9688 223V215H58.7656C59.3229 215 59.7826 215.096 60.1445 215.289C60.5065 215.479 60.776 215.736 60.9531 216.059C61.1302 216.379 61.2188 216.734 61.2188 217.125C61.2188 217.469 61.1576 217.753 61.0352 217.977C60.9154 218.201 60.7565 218.378 60.5586 218.508C60.3633 218.638 60.151 218.734 59.9219 218.797V218.875C60.1667 218.891 60.4128 218.977 60.6602 219.133C60.9076 219.289 61.1146 219.513 61.2813 219.805C61.4479 220.096 61.5312 220.453 61.5312 220.875C61.5312 221.276 61.4401 221.637 61.2578 221.957C61.0755 222.277 60.7878 222.531 60.3945 222.719C60.0013 222.906 59.4896 223 58.8594 223H55.9688ZM56.9375 222.141H58.8594C59.4922 222.141 59.9414 222.018 60.207 221.773C60.4753 221.526 60.6094 221.227 60.6094 220.875C60.6094 220.604 60.5404 220.354 60.4023 220.125C60.2643 219.893 60.0677 219.708 59.8125 219.57C59.5573 219.43 59.2552 219.359 58.9063 219.359H56.9375V222.141ZM56.9375 218.516H58.7344C59.026 218.516 59.2891 218.458 59.5234 218.344C59.7604 218.229 59.9479 218.068 60.0859 217.859C60.2266 217.651 60.2969 217.406 60.2969 217.125C60.2969 216.773 60.1745 216.475 59.9297 216.23C59.6849 215.983 59.2969 215.859 58.7656 215.859H56.9375V218.516ZM63.9749 215V223H63.053V215H63.9749ZM69.4996 220.547V217H70.4215V223H69.4996V221.984H69.4371C69.2965 222.289 69.0778 222.548 68.7809 222.762C68.484 222.973 68.109 223.078 67.6559 223.078C67.2809 223.078 66.9476 222.996 66.6559 222.832C66.3642 222.665 66.1351 222.415 65.9684 222.082C65.8017 221.746 65.7184 221.323 65.7184 220.812V217H66.6403V220.75C66.6403 221.187 66.7627 221.536 67.0075 221.797C67.2549 222.057 67.57 222.187 67.9528 222.187C68.1819 222.187 68.415 222.129 68.652 222.012C68.8916 221.895 69.0921 221.715 69.2536 221.473C69.4176 221.23 69.4996 220.922 69.4996 220.547ZM74.6806 223.125C74.1025 223.125 73.6038 222.997 73.1845 222.742C72.7679 222.484 72.4463 222.125 72.2197 221.664C71.9957 221.201 71.8838 220.661 71.8838 220.047C71.8838 219.432 71.9957 218.891 72.2197 218.422C72.4463 217.951 72.7614 217.583 73.165 217.32C73.5713 217.055 74.0452 216.922 74.5869 216.922C74.8994 216.922 75.208 216.974 75.5127 217.078C75.8173 217.182 76.0947 217.352 76.3447 217.586C76.5947 217.818 76.7939 218.125 76.9423 218.508C77.0908 218.891 77.165 219.362 77.165 219.922V220.312H72.54V219.516H76.2275C76.2275 219.177 76.1598 218.875 76.0244 218.609C75.8916 218.344 75.7015 218.134 75.4541 217.98C75.2093 217.827 74.9202 217.75 74.5869 217.75C74.2197 217.75 73.902 217.841 73.6338 218.023C73.3681 218.203 73.1637 218.437 73.0205 218.727C72.8772 219.016 72.8056 219.326 72.8056 219.656V220.188C72.8056 220.641 72.8838 221.025 73.04 221.34C73.1989 221.652 73.4189 221.891 73.7002 222.055C73.9814 222.216 74.3082 222.297 74.6806 222.297C74.9228 222.297 75.1416 222.263 75.3369 222.195C75.5348 222.125 75.7054 222.021 75.8486 221.883C75.9918 221.742 76.1025 221.568 76.1806 221.359L77.0713 221.609C76.9775 221.911 76.8199 222.177 76.5986 222.406C76.3772 222.633 76.1038 222.81 75.7783 222.937C75.4528 223.063 75.0869 223.125 74.6806 223.125Z" fill="black" fill-opacity="0.8"/>
<circle cx="39" cy="219" r="9.5" fill="#0080FF" stroke="white"/>
<rect width="200" height="32" transform="translate(23 235)" fill="white"/>
<path d="M55.9688 255V247H58.7656C59.3229 247 59.7826 247.096 60.1445 247.289C60.5065 247.479 60.776 247.736 60.9531 248.059C61.1302 248.379 61.2188 248.734 61.2188 249.125C61.2188 249.469 61.1576 249.753 61.0352 249.977C60.9154 250.201 60.7565 250.378 60.5586 250.508C60.3633 250.638 60.151 250.734 59.9219 250.797V250.875C60.1667 250.891 60.4128 250.977 60.6602 251.133C60.9076 251.289 61.1146 251.513 61.2813 251.805C61.4479 252.096 61.5312 252.453 61.5312 252.875C61.5312 253.276 61.4401 253.637 61.2578 253.957C61.0755 254.277 60.7878 254.531 60.3945 254.719C60.0013 254.906 59.4896 255 58.8594 255H55.9688ZM56.9375 254.141H58.8594C59.4922 254.141 59.9414 254.018 60.207 253.773C60.4753 253.526 60.6094 253.227 60.6094 252.875C60.6094 252.604 60.5404 252.354 60.4023 252.125C60.2643 251.893 60.0677 251.708 59.8125 251.57C59.5573 251.43 59.2552 251.359 58.9063 251.359H56.9375V254.141ZM56.9375 250.516H58.7344C59.026 250.516 59.2891 250.458 59.5234 250.344C59.7604 250.229 59.9479 250.068 60.0859 249.859C60.2266 249.651 60.2969 249.406 60.2969 249.125C60.2969 248.773 60.1745 248.475 59.9297 248.23C59.6849 247.983 59.2969 247.859 58.7656 247.859H56.9375V250.516ZM63.9749 247V255H63.053V247H63.9749ZM69.4996 252.547V249H70.4215V255H69.4996V253.984H69.4371C69.2965 254.289 69.0778 254.548 68.7809 254.762C68.484 254.973 68.109 255.078 67.6559 255.078C67.2809 255.078 66.9476 254.996 66.6559 254.832C66.3642 254.665 66.1351 254.415 65.9684 254.082C65.8017 253.746 65.7184 253.323 65.7184 252.812V249H66.6403V252.75C66.6403 253.187 66.7627 253.536 67.0075 253.797C67.2549 254.057 67.57 254.187 67.9528 254.187C68.1819 254.187 68.415 254.129 68.652 254.012C68.8916 253.895 69.0921 253.715 69.2536 253.473C69.4176 253.23 69.4996 252.922 69.4996 252.547ZM74.6806 255.125C74.1025 255.125 73.6038 254.997 73.1845 254.742C72.7679 254.484 72.4463 254.125 72.2197 253.664C71.9957 253.201 71.8838 252.661 71.8838 252.047C71.8838 251.432 71.9957 250.891 72.2197 250.422C72.4463 249.951 72.7614 249.583 73.165 249.32C73.5713 249.055 74.0452 248.922 74.5869 248.922C74.8994 248.922 75.208 248.974 75.5127 249.078C75.8173 249.182 76.0947 249.352 76.3447 249.586C76.5947 249.818 76.7939 250.125 76.9423 250.508C77.0908 250.891 77.165 251.362 77.165 251.922V252.312H72.54V251.516H76.2275C76.2275 251.177 76.1598 250.875 76.0244 250.609C75.8916 250.344 75.7015 250.134 75.4541 249.98C75.2093 249.827 74.9202 249.75 74.5869 249.75C74.2197 249.75 73.902 249.841 73.6338 250.023C73.3681 250.203 73.1637 250.437 73.0205 250.727C72.8772 251.016 72.8056 251.326 72.8056 251.656V252.188C72.8056 252.641 72.8838 253.025 73.04 253.34C73.1989 253.652 73.4189 253.891 73.7002 254.055C73.9814 254.216 74.3082 254.297 74.6806 254.297C74.9228 254.297 75.1416 254.263 75.3369 254.195C75.5348 254.125 75.7054 254.021 75.8486 253.883C75.9918 253.742 76.1025 253.568 76.1806 253.359L77.0713 253.609C76.9775 253.911 76.8199 254.177 76.5986 254.406C76.3772 254.633 76.1038 254.81 75.7783 254.937C75.4528 255.063 75.0869 255.125 74.6806 255.125ZM82.693 247V255H81.7711V247H82.693ZM84.4364 255V249H85.3583V255H84.4364ZM84.9052 248C84.7255 248 84.5706 247.939 84.4404 247.816C84.3127 247.694 84.2489 247.547 84.2489 247.375C84.2489 247.203 84.3127 247.056 84.4404 246.934C84.5706 246.811 84.7255 246.75 84.9052 246.75C85.0849 246.75 85.2385 246.811 85.3661 246.934C85.4963 247.056 85.5614 247.203 85.5614 247.375C85.5614 247.547 85.4963 247.694 85.3661 247.816C85.2385 247.939 85.0849 248 84.9052 248ZM89.5237 257.375C89.0784 257.375 88.6955 257.318 88.3752 257.203C88.0549 257.091 87.788 256.943 87.5745 256.758C87.3635 256.576 87.1955 256.38 87.0705 256.172L87.8049 255.656C87.8883 255.766 87.9937 255.891 88.1213 256.031C88.2489 256.174 88.4234 256.298 88.6448 256.402C88.8687 256.509 89.1617 256.562 89.5237 256.562C90.008 256.562 90.4078 256.445 90.7229 256.211C91.038 255.977 91.1955 255.609 91.1955 255.109V253.891H91.1174C91.0497 254 90.9534 254.135 90.8284 254.297C90.706 254.456 90.5289 254.598 90.2971 254.723C90.0679 254.845 89.758 254.906 89.3674 254.906C88.883 254.906 88.4482 254.792 88.0627 254.563C87.6799 254.333 87.3765 254 87.1526 253.562C86.9312 253.125 86.8205 252.594 86.8205 251.969C86.8205 251.354 86.9286 250.819 87.1448 250.363C87.3609 249.905 87.6617 249.551 88.0471 249.301C88.4325 249.048 88.8778 248.922 89.383 248.922C89.7737 248.922 90.0836 248.987 90.3127 249.117C90.5445 249.245 90.7216 249.391 90.844 249.555C90.969 249.716 91.0653 249.849 91.133 249.953H91.2268V249H92.1174V255.172C92.1174 255.688 92.0002 256.107 91.7659 256.43C91.5341 256.755 91.2216 256.993 90.8284 257.145C90.4377 257.298 90.0028 257.375 89.5237 257.375ZM89.4924 254.078C89.8622 254.078 90.1747 253.993 90.4299 253.824C90.6851 253.655 90.8791 253.411 91.012 253.094C91.1448 252.776 91.2112 252.396 91.2112 251.953C91.2112 251.521 91.1461 251.139 91.0159 250.809C90.8857 250.478 90.6929 250.219 90.4377 250.031C90.1825 249.844 89.8674 249.75 89.4924 249.75C89.1018 249.75 88.7763 249.849 88.5159 250.047C88.258 250.245 88.064 250.51 87.9338 250.844C87.8062 251.177 87.7424 251.547 87.7424 251.953C87.7424 252.37 87.8075 252.738 87.9377 253.059C88.0705 253.376 88.2659 253.626 88.5237 253.809C88.7841 253.988 89.107 254.078 89.4924 254.078ZM94.7818 251.391V255H93.8599V247H94.7818V249.937H94.8599C95.0005 249.628 95.2115 249.382 95.4927 249.199C95.7766 249.014 96.1542 248.922 96.6255 248.922C97.0344 248.922 97.3925 249.004 97.6998 249.168C98.0071 249.329 98.2453 249.578 98.4146 249.914C98.5865 250.247 98.6724 250.672 98.6724 251.188V255H97.7505V251.25C97.7505 250.773 97.6268 250.405 97.3795 250.145C97.1347 249.882 96.7948 249.75 96.3599 249.75C96.0578 249.75 95.787 249.814 95.5474 249.941C95.3104 250.069 95.1229 250.255 94.9849 250.5C94.8495 250.745 94.7818 251.042 94.7818 251.391ZM103.023 249V249.781H99.9139V249H103.023ZM100.82 247.562H101.742V253.281C101.742 253.542 101.78 253.737 101.855 253.867C101.933 253.995 102.032 254.081 102.152 254.125C102.275 254.167 102.404 254.187 102.539 254.187C102.641 254.187 102.724 254.182 102.789 254.172C102.854 254.159 102.906 254.148 102.945 254.141L103.133 254.969C103.07 254.992 102.983 255.016 102.871 255.039C102.759 255.065 102.617 255.078 102.445 255.078C102.185 255.078 101.93 255.022 101.68 254.91C101.432 254.798 101.226 254.628 101.062 254.398C100.901 254.169 100.82 253.88 100.82 253.531V247.562ZM106.916 255.125C106.338 255.125 105.839 254.997 105.42 254.742C105.003 254.484 104.682 254.125 104.455 253.664C104.231 253.201 104.119 252.661 104.119 252.047C104.119 251.432 104.231 250.891 104.455 250.422C104.682 249.951 104.997 249.583 105.401 249.32C105.807 249.055 106.281 248.922 106.822 248.922C107.135 248.922 107.444 248.974 107.748 249.078C108.053 249.182 108.33 249.352 108.58 249.586C108.83 249.818 109.029 250.125 109.178 250.508C109.326 250.891 109.401 251.362 109.401 251.922V252.312H104.776V251.516H108.463C108.463 251.177 108.395 250.875 108.26 250.609C108.127 250.344 107.937 250.134 107.69 249.98C107.445 249.827 107.156 249.75 106.822 249.75C106.455 249.75 106.138 249.841 105.869 250.023C105.604 250.203 105.399 250.437 105.256 250.727C105.113 251.016 105.041 251.326 105.041 251.656V252.188C105.041 252.641 105.119 253.025 105.276 253.34C105.434 253.652 105.654 253.891 105.936 254.055C106.217 254.216 106.544 254.297 106.916 254.297C107.158 254.297 107.377 254.263 107.572 254.195C107.77 254.125 107.941 254.021 108.084 253.883C108.227 253.742 108.338 253.568 108.416 253.359L109.307 253.609C109.213 253.911 109.056 254.177 108.834 254.406C108.613 254.633 108.339 254.81 108.014 254.937C107.688 255.063 107.322 255.125 106.916 255.125ZM110.858 255V249H111.749V249.906H111.811C111.92 249.609 112.118 249.368 112.405 249.184C112.691 248.999 113.014 248.906 113.374 248.906C113.441 248.906 113.526 248.908 113.627 248.91C113.729 248.913 113.806 248.917 113.858 248.922V249.859C113.827 249.852 113.755 249.84 113.643 249.824C113.534 249.806 113.418 249.797 113.295 249.797C113.004 249.797 112.743 249.858 112.514 249.98C112.288 250.1 112.108 250.267 111.975 250.48C111.845 250.691 111.78 250.932 111.78 251.203V255H110.858Z" fill="black" fill-opacity="0.8"/>
<circle cx="39" cy="251" r="9.5" fill="#CCE6FF" stroke="white"/>
<rect width="200" height="32" transform="translate(23 267)" fill="white"/>
<path d="M61.4375 281.5C61.3516 281.237 61.2383 281.001 61.0977 280.793C60.9596 280.582 60.7943 280.402 60.6016 280.254C60.4115 280.105 60.1953 279.992 59.9531 279.914C59.7109 279.836 59.4453 279.797 59.1562 279.797C58.6823 279.797 58.2513 279.919 57.8633 280.164C57.4753 280.409 57.1667 280.77 56.9375 281.246C56.7083 281.723 56.5938 282.307 56.5938 283C56.5938 283.693 56.7096 284.277 56.9414 284.754C57.1732 285.23 57.487 285.591 57.8828 285.836C58.2786 286.081 58.724 286.203 59.2188 286.203C59.6771 286.203 60.0807 286.105 60.4297 285.91C60.7813 285.712 61.0547 285.434 61.25 285.074C61.4479 284.712 61.5469 284.286 61.5469 283.797L61.8438 283.859H59.4375V283H62.4844V283.859C62.4844 284.518 62.3438 285.091 62.0625 285.578C61.7839 286.065 61.3984 286.443 60.9062 286.711C60.4167 286.977 59.8542 287.109 59.2188 287.109C58.5104 287.109 57.888 286.943 57.3516 286.609C56.8177 286.276 56.401 285.802 56.1016 285.187C55.8047 284.573 55.6563 283.844 55.6563 283C55.6563 282.367 55.7409 281.798 55.9102 281.293C56.082 280.785 56.3242 280.353 56.6367 279.996C56.9492 279.639 57.319 279.366 57.7461 279.176C58.1732 278.986 58.6432 278.891 59.1562 278.891C59.5781 278.891 59.9714 278.954 60.3359 279.082C60.7031 279.207 61.0299 279.385 61.3164 279.617C61.6055 279.846 61.8464 280.121 62.0391 280.441C62.2318 280.759 62.3646 281.112 62.4375 281.5H61.4375ZM64.0736 287V281H64.9642V281.906H65.0267C65.1361 281.609 65.334 281.368 65.6204 281.184C65.9069 280.999 66.2298 280.906 66.5892 280.906C66.6569 280.906 66.7415 280.908 66.8431 280.91C66.9446 280.913 67.0215 280.917 67.0736 280.922V281.859C67.0423 281.852 66.9707 281.84 66.8587 281.824C66.7493 281.806 66.6335 281.797 66.5111 281.797C66.2194 281.797 65.959 281.858 65.7298 281.98C65.5032 282.1 65.3236 282.267 65.1907 282.48C65.0605 282.691 64.9954 282.932 64.9954 283.203V287H64.0736ZM70.5543 287.125C69.9762 287.125 69.4775 286.997 69.0582 286.742C68.6416 286.484 68.32 286.125 68.0934 285.664C67.8694 285.201 67.7575 284.661 67.7575 284.047C67.7575 283.432 67.8694 282.891 68.0934 282.422C68.32 281.951 68.6351 281.583 69.0387 281.32C69.445 281.055 69.9189 280.922 70.4606 280.922C70.7731 280.922 71.0817 280.974 71.3864 281.078C71.6911 281.182 71.9684 281.352 72.2184 281.586C72.4684 281.818 72.6676 282.125 72.8161 282.508C72.9645 282.891 73.0387 283.362 73.0387 283.922V284.312H68.4137V283.516H72.1012C72.1012 283.177 72.0335 282.875 71.8981 282.609C71.7653 282.344 71.5752 282.134 71.3278 281.98C71.083 281.827 70.7939 281.75 70.4606 281.75C70.0934 281.75 69.7757 281.841 69.5075 282.023C69.2418 282.203 69.0374 282.437 68.8942 282.727C68.751 283.016 68.6793 283.326 68.6793 283.656V284.188C68.6793 284.641 68.7575 285.025 68.9137 285.34C69.0726 285.652 69.2926 285.891 69.5739 286.055C69.8551 286.216 70.1819 286.297 70.5543 286.297C70.7965 286.297 71.0153 286.263 71.2106 286.195C71.4085 286.125 71.5791 286.021 71.7223 285.883C71.8655 285.742 71.9762 285.568 72.0543 285.359L72.945 285.609C72.8512 285.911 72.6937 286.177 72.4723 286.406C72.251 286.633 71.9775 286.81 71.652 286.937C71.3265 287.063 70.9606 287.125 70.5543 287.125ZM77.0117 287.125C76.4336 287.125 75.9349 286.997 75.5156 286.742C75.0989 286.484 74.7773 286.125 74.5507 285.664C74.3268 285.201 74.2148 284.661 74.2148 284.047C74.2148 283.432 74.3268 282.891 74.5507 282.422C74.7773 281.951 75.0924 281.583 75.4961 281.32C75.9023 281.055 76.3763 280.922 76.9179 280.922C77.2304 280.922 77.539 280.974 77.8437 281.078C78.1484 281.182 78.4257 281.352 78.6757 281.586C78.9257 281.818 79.125 282.125 79.2734 282.508C79.4218 282.891 79.4961 283.362 79.4961 283.922V284.312H74.8711V283.516H78.5586C78.5586 283.177 78.4908 282.875 78.3554 282.609C78.2226 282.344 78.0325 282.134 77.7851 281.98C77.5403 281.827 77.2513 281.75 76.9179 281.75C76.5507 281.75 76.233 281.841 75.9648 282.023C75.6992 282.203 75.4948 282.437 75.3515 282.727C75.2083 283.016 75.1367 283.326 75.1367 283.656V284.188C75.1367 284.641 75.2148 285.025 75.3711 285.34C75.5299 285.652 75.75 285.891 76.0312 286.055C76.3125 286.216 76.6393 286.297 77.0117 286.297C77.2539 286.297 77.4726 286.263 77.6679 286.195C77.8658 286.125 78.0364 286.021 78.1796 285.883C78.3229 285.742 78.4336 285.568 78.5117 285.359L79.4023 285.609C79.3086 285.911 79.151 286.177 78.9296 286.406C78.7083 286.633 78.4349 286.81 78.1093 286.937C77.7838 287.063 77.4179 287.125 77.0117 287.125ZM81.8753 283.391V287H80.9534V281H81.844V281.937H81.9221C82.0628 281.633 82.2763 281.388 82.5628 281.203C82.8492 281.016 83.219 280.922 83.6721 280.922C84.0784 280.922 84.4339 281.005 84.7386 281.172C85.0432 281.336 85.2802 281.586 85.4495 281.922C85.6188 282.255 85.7034 282.677 85.7034 283.188V287H84.7815V283.25C84.7815 282.779 84.6591 282.411 84.4143 282.148C84.1695 281.883 83.8336 281.75 83.4065 281.75C83.1123 281.75 82.8492 281.814 82.6175 281.941C82.3883 282.069 82.2073 282.255 82.0745 282.5C81.9417 282.745 81.8753 283.042 81.8753 283.391Z" fill="black" fill-opacity="0.8"/>
<circle cx="39" cy="283" r="9.5" fill="#00C489" stroke="white"/>
<rect width="200" height="32" transform="translate(23 299)" fill="white"/>
<path d="M61.4375 313.5C61.3516 313.237 61.2383 313.001 61.0977 312.793C60.9596 312.582 60.7943 312.402 60.6016 312.254C60.4115 312.105 60.1953 311.992 59.9531 311.914C59.7109 311.836 59.4453 311.797 59.1562 311.797C58.6823 311.797 58.2513 311.919 57.8633 312.164C57.4753 312.409 57.1667 312.77 56.9375 313.246C56.7083 313.723 56.5938 314.307 56.5938 315C56.5938 315.693 56.7096 316.277 56.9414 316.754C57.1732 317.23 57.487 317.591 57.8828 317.836C58.2786 318.081 58.724 318.203 59.2188 318.203C59.6771 318.203 60.0807 318.105 60.4297 317.91C60.7813 317.712 61.0547 317.434 61.25 317.074C61.4479 316.712 61.5469 316.286 61.5469 315.797L61.8438 315.859H59.4375V315H62.4844V315.859C62.4844 316.518 62.3438 317.091 62.0625 317.578C61.7839 318.065 61.3984 318.443 60.9062 318.711C60.4167 318.977 59.8542 319.109 59.2188 319.109C58.5104 319.109 57.888 318.943 57.3516 318.609C56.8177 318.276 56.401 317.802 56.1016 317.187C55.8047 316.573 55.6563 315.844 55.6563 315C55.6563 314.367 55.7409 313.798 55.9102 313.293C56.082 312.785 56.3242 312.353 56.6367 311.996C56.9492 311.639 57.319 311.366 57.7461 311.176C58.1732 310.986 58.6432 310.891 59.1562 310.891C59.5781 310.891 59.9714 310.954 60.3359 311.082C60.7031 311.207 61.0299 311.385 61.3164 311.617C61.6055 311.846 61.8464 312.121 62.0391 312.441C62.2318 312.759 62.3646 313.112 62.4375 313.5H61.4375ZM64.0736 319V313H64.9642V313.906H65.0267C65.1361 313.609 65.334 313.368 65.6204 313.184C65.9069 312.999 66.2298 312.906 66.5892 312.906C66.6569 312.906 66.7415 312.908 66.8431 312.91C66.9446 312.913 67.0215 312.917 67.0736 312.922V313.859C67.0423 313.852 66.9707 313.84 66.8587 313.824C66.7493 313.806 66.6335 313.797 66.5111 313.797C66.2194 313.797 65.959 313.858 65.7298 313.98C65.5032 314.1 65.3236 314.267 65.1907 314.48C65.0605 314.691 64.9954 314.932 64.9954 315.203V319H64.0736ZM70.5543 319.125C69.9762 319.125 69.4775 318.997 69.0582 318.742C68.6416 318.484 68.32 318.125 68.0934 317.664C67.8694 317.201 67.7575 316.661 67.7575 316.047C67.7575 315.432 67.8694 314.891 68.0934 314.422C68.32 313.951 68.6351 313.583 69.0387 313.32C69.445 313.055 69.9189 312.922 70.4606 312.922C70.7731 312.922 71.0817 312.974 71.3864 313.078C71.6911 313.182 71.9684 313.352 72.2184 313.586C72.4684 313.818 72.6676 314.125 72.8161 314.508C72.9645 314.891 73.0387 315.362 73.0387 315.922V316.312H68.4137V315.516H72.1012C72.1012 315.177 72.0335 314.875 71.8981 314.609C71.7653 314.344 71.5752 314.134 71.3278 313.98C71.083 313.827 70.7939 313.75 70.4606 313.75C70.0934 313.75 69.7757 313.841 69.5075 314.023C69.2418 314.203 69.0374 314.437 68.8942 314.727C68.751 315.016 68.6793 315.326 68.6793 315.656V316.188C68.6793 316.641 68.7575 317.025 68.9137 317.34C69.0726 317.652 69.2926 317.891 69.5739 318.055C69.8551 318.216 70.1819 318.297 70.5543 318.297C70.7965 318.297 71.0153 318.263 71.2106 318.195C71.4085 318.125 71.5791 318.021 71.7223 317.883C71.8655 317.742 71.9762 317.568 72.0543 317.359L72.945 317.609C72.8512 317.911 72.6937 318.177 72.4723 318.406C72.251 318.633 71.9775 318.81 71.652 318.937C71.3265 319.063 70.9606 319.125 70.5543 319.125ZM77.0117 319.125C76.4336 319.125 75.9349 318.997 75.5156 318.742C75.0989 318.484 74.7773 318.125 74.5507 317.664C74.3268 317.201 74.2148 316.661 74.2148 316.047C74.2148 315.432 74.3268 314.891 74.5507 314.422C74.7773 313.951 75.0924 313.583 75.4961 313.32C75.9023 313.055 76.3763 312.922 76.9179 312.922C77.2304 312.922 77.539 312.974 77.8437 313.078C78.1484 313.182 78.4257 313.352 78.6757 313.586C78.9257 313.818 79.125 314.125 79.2734 314.508C79.4218 314.891 79.4961 315.362 79.4961 315.922V316.312H74.8711V315.516H78.5586C78.5586 315.177 78.4908 314.875 78.3554 314.609C78.2226 314.344 78.0325 314.134 77.7851 313.98C77.5403 313.827 77.2513 313.75 76.9179 313.75C76.5507 313.75 76.233 313.841 75.9648 314.023C75.6992 314.203 75.4948 314.437 75.3515 314.727C75.2083 315.016 75.1367 315.326 75.1367 315.656V316.188C75.1367 316.641 75.2148 317.025 75.3711 317.34C75.5299 317.652 75.75 317.891 76.0312 318.055C76.3125 318.216 76.6393 318.297 77.0117 318.297C77.2539 318.297 77.4726 318.263 77.6679 318.195C77.8658 318.125 78.0364 318.021 78.1796 317.883C78.3229 317.742 78.4336 317.568 78.5117 317.359L79.4023 317.609C79.3086 317.911 79.151 318.177 78.9296 318.406C78.7083 318.633 78.4349 318.81 78.1093 318.937C77.7838 319.063 77.4179 319.125 77.0117 319.125ZM81.8753 315.391V319H80.9534V313H81.844V313.937H81.9221C82.0628 313.633 82.2763 313.388 82.5628 313.203C82.8492 313.016 83.219 312.922 83.6721 312.922C84.0784 312.922 84.4339 313.005 84.7386 313.172C85.0432 313.336 85.2802 313.586 85.4495 313.922C85.6188 314.255 85.7034 314.677 85.7034 315.188V319H84.7815V315.25C84.7815 314.779 84.6591 314.411 84.4143 314.148C84.1695 313.883 83.8336 313.75 83.4065 313.75C83.1123 313.75 82.8492 313.814 82.6175 313.941C82.3883 314.069 82.2073 314.255 82.0745 314.5C81.9417 314.745 81.8753 315.042 81.8753 315.391ZM91.5136 311V319H90.5917V311H91.5136ZM93.2571 319V313H94.1789V319H93.2571ZM93.7258 312C93.5461 312 93.3912 311.939 93.261 311.816C93.1334 311.694 93.0696 311.547 93.0696 311.375C93.0696 311.203 93.1334 311.056 93.261 310.934C93.3912 310.811 93.5461 310.75 93.7258 310.75C93.9055 310.75 94.0592 310.811 94.1868 310.934C94.317 311.056 94.3821 311.203 94.3821 311.375C94.3821 311.547 94.317 311.694 94.1868 311.816C94.0592 311.939 93.9055 312 93.7258 312ZM98.3443 321.375C97.899 321.375 97.5162 321.318 97.1959 321.203C96.8755 321.091 96.6086 320.943 96.3951 320.758C96.1841 320.576 96.0162 320.38 95.8912 320.172L96.6255 319.656C96.7089 319.766 96.8143 319.891 96.942 320.031C97.0696 320.174 97.244 320.298 97.4654 320.402C97.6893 320.509 97.9823 320.562 98.3443 320.562C98.8287 320.562 99.2284 320.445 99.5435 320.211C99.8586 319.977 100.016 319.609 100.016 319.109V317.891H99.938C99.8703 318 99.774 318.135 99.649 318.297C99.5266 318.456 99.3495 318.598 99.1177 318.723C98.8886 318.845 98.5787 318.906 98.188 318.906C97.7037 318.906 97.2688 318.792 96.8834 318.563C96.5005 318.333 96.1972 318 95.9732 317.562C95.7518 317.125 95.6412 316.594 95.6412 315.969C95.6412 315.354 95.7492 314.819 95.9654 314.363C96.1815 313.905 96.4823 313.551 96.8677 313.301C97.2531 313.048 97.6985 312.922 98.2037 312.922C98.5943 312.922 98.9042 312.987 99.1334 313.117C99.3651 313.245 99.5422 313.391 99.6646 313.555C99.7896 313.716 99.886 313.849 99.9537 313.953H100.047V313H100.938V319.172C100.938 319.688 100.821 320.107 100.586 320.43C100.355 320.755 100.042 320.993 99.649 321.145C99.2584 321.298 98.8235 321.375 98.3443 321.375ZM98.313 318.078C98.6828 318.078 98.9953 317.993 99.2505 317.824C99.5058 317.655 99.6998 317.411 99.8326 317.094C99.9654 316.776 100.032 316.396 100.032 315.953C100.032 315.521 99.9667 315.139 99.8365 314.809C99.7063 314.478 99.5136 314.219 99.2584 314.031C99.0031 313.844 98.688 313.75 98.313 313.75C97.9224 313.75 97.5969 313.849 97.3365 314.047C97.0787 314.245 96.8847 314.51 96.7545 314.844C96.6268 315.177 96.563 315.547 96.563 315.953C96.563 316.37 96.6281 316.738 96.7584 317.059C96.8912 317.376 97.0865 317.626 97.3443 317.809C97.6047 317.988 97.9276 318.078 98.313 318.078ZM103.602 315.391V319H102.681V311H103.602V313.937H103.681C103.821 313.628 104.032 313.382 104.313 313.199C104.597 313.014 104.975 312.922 105.446 312.922C105.855 312.922 106.213 313.004 106.52 313.168C106.828 313.329 107.066 313.578 107.235 313.914C107.407 314.247 107.493 314.672 107.493 315.188V319H106.571V315.25C106.571 314.773 106.447 314.405 106.2 314.145C105.955 313.882 105.615 313.75 105.181 313.75C104.878 313.75 104.608 313.814 104.368 313.941C104.131 314.069 103.944 314.255 103.806 314.5C103.67 314.745 103.602 315.042 103.602 315.391ZM111.844 313V313.781H108.735V313H111.844ZM109.641 311.562H110.563V317.281C110.563 317.542 110.6 317.737 110.676 317.867C110.754 317.995 110.853 318.081 110.973 318.125C111.095 318.167 111.224 318.187 111.36 318.187C111.461 318.187 111.544 318.182 111.61 318.172C111.675 318.159 111.727 318.148 111.766 318.141L111.953 318.969C111.891 318.992 111.804 319.016 111.692 319.039C111.58 319.065 111.438 319.078 111.266 319.078C111.005 319.078 110.75 319.022 110.5 318.91C110.253 318.798 110.047 318.628 109.883 318.398C109.722 318.169 109.641 317.88 109.641 317.531V311.562ZM115.737 319.125C115.159 319.125 114.66 318.997 114.241 318.742C113.824 318.484 113.502 318.125 113.276 317.664C113.052 317.201 112.94 316.661 112.94 316.047C112.94 315.432 113.052 314.891 113.276 314.422C113.502 313.951 113.818 313.583 114.221 313.32C114.627 313.055 115.101 312.922 115.643 312.922C115.956 312.922 116.264 312.974 116.569 313.078C116.874 313.182 117.151 313.352 117.401 313.586C117.651 313.818 117.85 314.125 117.999 314.508C118.147 314.891 118.221 315.362 118.221 315.922V316.312H113.596V315.516H117.284C117.284 315.177 117.216 314.875 117.081 314.609C116.948 314.344 116.758 314.134 116.51 313.98C116.265 313.827 115.976 313.75 115.643 313.75C115.276 313.75 114.958 313.841 114.69 314.023C114.424 314.203 114.22 314.437 114.077 314.727C113.933 315.016 113.862 315.326 113.862 315.656V316.188C113.862 316.641 113.94 317.025 114.096 317.34C114.255 317.652 114.475 317.891 114.756 318.055C115.038 318.216 115.364 318.297 115.737 318.297C115.979 318.297 116.198 318.263 116.393 318.195C116.591 318.125 116.762 318.021 116.905 317.883C117.048 317.742 117.159 317.568 117.237 317.359L118.127 317.609C118.034 317.911 117.876 318.177 117.655 318.406C117.433 318.633 117.16 318.81 116.834 318.937C116.509 319.063 116.143 319.125 115.737 319.125ZM119.679 319V313H120.569V313.906H120.632C120.741 313.609 120.939 313.368 121.225 313.184C121.512 312.999 121.835 312.906 122.194 312.906C122.262 312.906 122.347 312.908 122.448 312.91C122.55 312.913 122.626 312.917 122.679 312.922V313.859C122.647 313.852 122.576 313.84 122.464 313.824C122.354 313.806 122.238 313.797 122.116 313.797C121.824 313.797 121.564 313.858 121.335 313.98C121.108 314.1 120.929 314.267 120.796 314.48C120.666 314.691 120.6 314.932 120.6 315.203V319H119.679Z" fill="black" fill-opacity="0.8"/>
<circle cx="39" cy="315" r="9.5" fill="#CCF3E7" stroke="white"/>
</g>
<rect width="168" height="32" transform="translate(23 21)" fill="white"/>
<path d="M38.6367 35.6992H37.1758C37.1341 35.4596 37.0573 35.2474 36.9453 35.0625C36.8333 34.875 36.694 34.7161 36.5273 34.5859C36.3607 34.4557 36.1706 34.3581 35.957 34.293C35.7461 34.2253 35.5182 34.1914 35.2734 34.1914C34.8385 34.1914 34.4531 34.3008 34.1172 34.5195C33.7813 34.7357 33.5182 35.0534 33.3281 35.4727C33.138 35.8893 33.043 36.3984 33.043 37C33.043 37.612 33.138 38.1276 33.3281 38.5469C33.5208 38.9635 33.7839 39.2786 34.1172 39.4922C34.4531 39.7031 34.8372 39.8086 35.2695 39.8086C35.5091 39.8086 35.7331 39.7773 35.9414 39.7148C36.1523 39.6497 36.3411 39.5547 36.5078 39.4297C36.6771 39.3047 36.819 39.151 36.9336 38.9687C37.0508 38.7865 37.1315 38.5781 37.1758 38.3437L38.6367 38.3516C38.582 38.7318 38.4635 39.0885 38.2812 39.4219C38.1016 39.7552 37.8659 40.0495 37.5742 40.3047C37.2826 40.5573 36.9414 40.7552 36.5508 40.8984C36.1602 41.0391 35.7266 41.1094 35.25 41.1094C34.5469 41.1094 33.9193 40.9466 33.3672 40.6211C32.8151 40.2956 32.3802 39.8255 32.0625 39.2109C31.7448 38.5964 31.5859 37.8594 31.5859 37C31.5859 36.138 31.7461 35.401 32.0664 34.7891C32.3867 34.1745 32.8229 33.7044 33.375 33.3789C33.9271 33.0534 34.5521 32.8906 35.25 32.8906C35.6953 32.8906 36.1094 32.9531 36.4922 33.0781C36.875 33.2031 37.2161 33.3867 37.5156 33.6289C37.8151 33.8685 38.0612 34.1628 38.2539 34.5117C38.4492 34.8581 38.5768 35.2539 38.6367 35.6992ZM42.5736 41.1172C41.9876 41.1172 41.4798 40.9883 41.0501 40.7305C40.6204 40.4727 40.2871 40.112 40.0501 39.6484C39.8157 39.1849 39.6986 38.6432 39.6986 38.0234C39.6986 37.4036 39.8157 36.8607 40.0501 36.3945C40.2871 35.9284 40.6204 35.5664 41.0501 35.3086C41.4798 35.0508 41.9876 34.9219 42.5736 34.9219C43.1595 34.9219 43.6673 35.0508 44.097 35.3086C44.5267 35.5664 44.8587 35.9284 45.0931 36.3945C45.3301 36.8607 45.4486 37.4036 45.4486 38.0234C45.4486 38.6432 45.3301 39.1849 45.0931 39.6484C44.8587 40.112 44.5267 40.4727 44.097 40.7305C43.6673 40.9883 43.1595 41.1172 42.5736 41.1172ZM42.5814 39.9844C42.8991 39.9844 43.1647 39.8971 43.3782 39.7227C43.5918 39.5456 43.7506 39.3086 43.8548 39.0117C43.9616 38.7148 44.015 38.3841 44.015 38.0195C44.015 37.6523 43.9616 37.3203 43.8548 37.0234C43.7506 36.724 43.5918 36.4857 43.3782 36.3086C43.1647 36.1315 42.8991 36.043 42.5814 36.043C42.2558 36.043 41.985 36.1315 41.7689 36.3086C41.5553 36.4857 41.3952 36.724 41.2884 37.0234C41.1842 37.3203 41.1321 37.6523 41.1321 38.0195C41.1321 38.3841 41.1842 38.7148 41.2884 39.0117C41.3952 39.3086 41.5553 39.5456 41.7689 39.7227C41.985 39.8971 42.2558 39.9844 42.5814 39.9844ZM48.1178 33V41H46.7037V33H48.1178ZM52.2441 41.1172C51.6582 41.1172 51.1504 40.9883 50.7207 40.7305C50.291 40.4727 49.9576 40.112 49.7207 39.6484C49.4863 39.1849 49.3691 38.6432 49.3691 38.0234C49.3691 37.4036 49.4863 36.8607 49.7207 36.3945C49.9576 35.9284 50.291 35.5664 50.7207 35.3086C51.1504 35.0508 51.6582 34.9219 52.2441 34.9219C52.83 34.9219 53.3379 35.0508 53.7675 35.3086C54.1972 35.5664 54.5293 35.9284 54.7636 36.3945C55.0006 36.8607 55.1191 37.4036 55.1191 38.0234C55.1191 38.6432 55.0006 39.1849 54.7636 39.6484C54.5293 40.112 54.1972 40.4727 53.7675 40.7305C53.3379 40.9883 52.83 41.1172 52.2441 41.1172ZM52.2519 39.9844C52.5696 39.9844 52.8352 39.8971 53.0488 39.7227C53.2623 39.5456 53.4212 39.3086 53.5254 39.0117C53.6321 38.7148 53.6855 38.3841 53.6855 38.0195C53.6855 37.6523 53.6321 37.3203 53.5254 37.0234C53.4212 36.724 53.2623 36.4857 53.0488 36.3086C52.8352 36.1315 52.5696 36.043 52.2519 36.043C51.9264 36.043 51.6556 36.1315 51.4394 36.3086C51.2259 36.4857 51.0657 36.724 50.9589 37.0234C50.8548 37.3203 50.8027 37.6523 50.8027 38.0195C50.8027 38.3841 50.8548 38.7148 50.9589 39.0117C51.0657 39.3086 51.2259 39.5456 51.4394 39.7227C51.6556 39.8971 51.9264 39.9844 52.2519 39.9844ZM56.3743 41V35H57.7454V36H57.8079C57.9173 35.6536 58.1048 35.3867 58.3704 35.1992C58.6386 35.0091 58.9446 34.9141 59.2884 34.9141C59.3665 34.9141 59.4537 34.918 59.5501 34.9258C59.649 34.931 59.7311 34.9401 59.7962 34.9531V36.2539C59.7363 36.2331 59.6412 36.2148 59.511 36.1992C59.3834 36.181 59.2597 36.1719 59.1399 36.1719C58.8821 36.1719 58.6503 36.2279 58.4446 36.3398C58.2415 36.4492 58.0813 36.6016 57.9641 36.7969C57.847 36.9922 57.7884 37.2174 57.7884 37.4727V41H56.3743ZM68.3163 36.5859L67.0273 36.7266C66.9908 36.5964 66.927 36.474 66.8359 36.3594C66.7473 36.2448 66.6275 36.1523 66.4765 36.082C66.3254 36.0117 66.1405 35.9766 65.9218 35.9766C65.6275 35.9766 65.3801 36.0404 65.1796 36.168C64.9817 36.2956 64.884 36.4609 64.8866 36.6641C64.884 36.8385 64.9478 36.9805 65.078 37.0898C65.2109 37.1992 65.4296 37.2891 65.7343 37.3594L66.7577 37.5781C67.3254 37.7005 67.7473 37.8945 68.0234 38.1602C68.302 38.4258 68.4426 38.7734 68.4452 39.2031C68.4426 39.5807 68.332 39.9141 68.1132 40.2031C67.8971 40.4896 67.5963 40.7135 67.2109 40.875C66.8254 41.0365 66.3827 41.1172 65.8827 41.1172C65.1484 41.1172 64.5572 40.9635 64.1093 40.6562C63.6614 40.3464 63.3945 39.9154 63.3085 39.3633L64.6874 39.2305C64.7499 39.5013 64.8827 39.7057 65.0859 39.8437C65.289 39.9818 65.5533 40.0508 65.8788 40.0508C66.2148 40.0508 66.4843 39.9818 66.6874 39.8437C66.8932 39.7057 66.996 39.5352 66.996 39.332C66.996 39.1602 66.9296 39.0182 66.7968 38.9062C66.6666 38.7943 66.4635 38.7083 66.1874 38.6484L65.164 38.4336C64.5885 38.3138 64.1627 38.112 63.8866 37.8281C63.6106 37.5417 63.4739 37.1797 63.4765 36.7422C63.4739 36.3724 63.5741 36.0521 63.7773 35.7812C63.983 35.5078 64.2682 35.2969 64.6327 35.1484C64.9999 34.9974 65.4231 34.9219 65.9023 34.9219C66.6054 34.9219 67.1588 35.0716 67.5624 35.3711C67.9687 35.6706 68.22 36.0755 68.3163 36.5859ZM72.6623 35V36.0937H69.2131V35H72.6623ZM70.0647 33.5625H71.4787V39.1953C71.4787 39.3854 71.5074 39.5313 71.5647 39.6328C71.6246 39.7318 71.7027 39.7995 71.7991 39.8359C71.8954 39.8724 72.0022 39.8906 72.1194 39.8906C72.2079 39.8906 72.2886 39.8841 72.3616 39.8711C72.4371 39.8581 72.4944 39.8464 72.5334 39.8359L72.7717 40.9414C72.6962 40.9674 72.5881 40.9961 72.4475 41.0273C72.3095 41.0586 72.1402 41.0768 71.9397 41.082C71.5855 41.0924 71.2665 41.0391 70.9827 40.9219C70.6988 40.8021 70.4735 40.6172 70.3069 40.3672C70.1428 40.1172 70.0621 39.8047 70.0647 39.4297V33.5625ZM74.7789 43.25C74.5862 43.25 74.4078 43.2344 74.2437 43.2031C74.0823 43.1745 73.9533 43.1406 73.857 43.1016L74.1851 42C74.3908 42.0599 74.5744 42.0885 74.7359 42.0859C74.8974 42.0833 75.0393 42.0326 75.1617 41.9336C75.2867 41.8372 75.3921 41.6758 75.4781 41.4492L75.5992 41.125L73.4234 35H74.9234L76.3062 39.5312H76.3687L77.7554 35H79.2593L76.857 41.7266C76.745 42.0443 76.5966 42.3164 76.4117 42.543C76.2268 42.7721 76.0002 42.9466 75.732 43.0664C75.4664 43.1888 75.1487 43.25 74.7789 43.25ZM81.7069 33V41H80.2929V33H81.7069ZM85.8723 41.1172C85.2707 41.1172 84.7512 40.9922 84.3137 40.7422C83.8788 40.4896 83.5441 40.1328 83.3098 39.6719C83.0754 39.2083 82.9582 38.6628 82.9582 38.0352C82.9582 37.418 83.0754 36.8763 83.3098 36.4102C83.5467 35.9414 83.8775 35.5768 84.302 35.3164C84.7264 35.0534 85.2251 34.9219 85.798 34.9219C86.1678 34.9219 86.5168 34.9818 86.8449 35.1016C87.1757 35.2187 87.4673 35.401 87.7199 35.6484C87.9751 35.8958 88.1757 36.2109 88.3215 36.5937C88.4673 36.974 88.5402 37.4271 88.5402 37.9531V38.3867H83.6223V37.4336H87.1848C87.1822 37.1628 87.1236 36.9219 87.009 36.7109C86.8944 36.4974 86.7342 36.3294 86.5285 36.207C86.3254 36.0846 86.0884 36.0234 85.8176 36.0234C85.5285 36.0234 85.2746 36.0937 85.0559 36.2344C84.8371 36.3724 84.6665 36.5547 84.5441 36.7812C84.4243 37.0052 84.3632 37.2513 84.3605 37.5195V38.3516C84.3605 38.7005 84.4243 39 84.552 39.25C84.6796 39.4974 84.8579 39.6875 85.0871 39.8203C85.3163 39.9505 85.5845 40.0156 85.8918 40.0156C86.0975 40.0156 86.2837 39.987 86.4504 39.9297C86.6171 39.8698 86.7616 39.7826 86.884 39.668C87.0064 39.5534 87.0988 39.4115 87.1613 39.2422L88.4816 39.3906C88.3983 39.7396 88.2395 40.0443 88.0051 40.3047C87.7733 40.5625 87.4764 40.763 87.1145 40.9062C86.7525 41.0469 86.3384 41.1172 85.8723 41.1172ZM94.5337 36.5859L93.2446 36.7266C93.2082 36.5964 93.1444 36.474 93.0532 36.3594C92.9647 36.2448 92.8449 36.1523 92.6939 36.082C92.5428 36.0117 92.3579 35.9766 92.1392 35.9766C91.8449 35.9766 91.5975 36.0404 91.397 36.168C91.1991 36.2956 91.1014 36.4609 91.104 36.6641C91.1014 36.8385 91.1652 36.9805 91.2954 37.0898C91.4282 37.1992 91.647 37.2891 91.9517 37.3594L92.9751 37.5781C93.5428 37.7005 93.9647 37.8945 94.2407 38.1602C94.5194 38.4258 94.66 38.7734 94.6626 39.2031C94.66 39.5807 94.5493 39.9141 94.3306 40.2031C94.1144 40.4896 93.8137 40.7135 93.4282 40.875C93.0428 41.0365 92.6001 41.1172 92.1001 41.1172C91.3657 41.1172 90.7746 40.9635 90.3267 40.6562C89.8788 40.3464 89.6118 39.9154 89.5259 39.3633L90.9048 39.2305C90.9673 39.5013 91.1001 39.7057 91.3032 39.8437C91.5064 39.9818 91.7707 40.0508 92.0962 40.0508C92.4321 40.0508 92.7017 39.9818 92.9048 39.8437C93.1105 39.7057 93.2134 39.5352 93.2134 39.332C93.2134 39.1602 93.147 39.0182 93.0142 38.9062C92.884 38.7943 92.6808 38.7083 92.4048 38.6484L91.3814 38.4336C90.8058 38.3138 90.3801 38.112 90.104 37.8281C89.828 37.5417 89.6913 37.1797 89.6939 36.7422C89.6913 36.3724 89.7915 36.0521 89.9946 35.7812C90.2004 35.5078 90.4855 35.2969 90.8501 35.1484C91.2173 34.9974 91.6405 34.9219 92.1196 34.9219C92.8228 34.9219 93.3762 35.0716 93.7798 35.3711C94.1861 35.6706 94.4374 36.0755 94.5337 36.5859Z" fill="black" fill-opacity="0.8"/>
<path fill-rule="evenodd" clip-rule="evenodd" d="M170 32H173V35H170V32ZM169 31H170H173H174V32V35V36H173H170H169V35V32V31ZM170 39H173V42H170V39ZM169 38H170H173H174V39V42V43H173H170H169V42V39V38ZM180 32H177V35H180V32ZM177 31H176V32V35V36H177H180H181V35V32V31H180H177ZM177 39H180V42H177V39ZM176 38H177H180H181V39V42V43H180H177H176V42V39V38Z" fill="black" fill-opacity="0.8"/>
<path fill-rule="evenodd" clip-rule="evenodd" d="M206.5 36.5V31.5H207.5V36.5H212.5V37.5H207.5V42.5H206.5V37.5H201.5V36.5H206.5Z" fill="black" fill-opacity="0.8"/>
<defs>
<filter id="filter0_d_21_421" x="0.5" y="0.5" width="245" height="357" filterUnits="userSpaceOnUse" color-interpolation-filters="sRGB">
<feFlood flood-opacity="0" result="BackgroundImageFix"/>
<feColorMatrix in="SourceAlpha" type="matrix" values="0 0 0 0 0 0 0 0 0 0 0 0 0 0 0 0 0 0 127 0" result="hardAlpha"/>
<feOffset dy="2"/>
<feGaussianBlur stdDeviation="7"/>
<feColorMatrix type="matrix" values="0 0 0 0 0 0 0 0 0 0 0 0 0 0 0 0 0 0 0.15 0"/>
<feBlend mode="normal" in2="BackgroundImageFix" result="effect1_dropShadow_21_421"/>
<feBlend mode="normal" in="SourceGraphic" in2="effect1_dropShadow_21_421" result="shape"/>
</filter>
<clipPath id="clip0_21_421">
<rect width="200" height="224" fill="white" transform="translate(23 107)"/>
</clipPath>
</defs>
</svg>
